<?xml version="1.0" standalone="no"?>
<!DOCTYPE svg PUBLIC "-//W3C//DTD SVG 20010904//EN"
 "http://www.w3.org/TR/2001/REC-SVG-20010904/DTD/svg10.dtd">
<svg version="1.0" xmlns="http://www.w3.org/2000/svg"
 width="552.000000pt" height="113.000000pt" viewBox="0 0 552.000000 113.000000"
 preserveAspectRatio="xMidYMid meet">

<g transform="translate(0.000000,113.000000) scale(0.100000,-0.100000)"
fill="#000000" stroke="none">
<path d="M143 923 c-29 -82 -53 -154 -55 -161 -3 -12 80 -52 108 -52 6 0 21
22 34 49 12 27 40 66 60 86 38 37 103 67 127 58 18 -7 19 -613 1 -631 -7 -7
-31 -12 -55 -12 l-43 0 0 -65 0 -65 225 0 226 0 -3 62 -3 63 -45 3 c-24 2 -48
9 -52 15 -4 7 -8 150 -8 318 0 237 3 308 13 311 46 17 139 -53 183 -136 16
-31 34 -56 39 -55 33 2 110 38 107 50 -1 8 -26 80 -54 162 l-52 147 -42 0
c-28 0 -44 -5 -48 -15 -8 -23 -514 -23 -522 0 -4 10 -20 15 -48 15 l-41 0 -52
-147z"/>
<path d="M1763 1030 c-167 -55 -245 -204 -179 -345 42 -90 104 -127 327 -194
148 -45 203 -73 219 -111 14 -34 0 -73 -37 -97 -40 -27 -163 -25 -225 4 -62
28 -143 105 -180 171 -17 28 -32 52 -35 52 -14 0 -99 -24 -106 -30 -4 -4 6
-81 22 -172 17 -91 31 -168 31 -172 0 -3 23 -6 51 -6 47 0 51 2 60 30 6 17 12
30 14 30 1 0 31 -13 66 -30 195 -91 439 -32 519 126 37 72 35 171 -3 237 -48
82 -119 119 -357 188 -130 38 -156 51 -175 89 -13 24 -13 35 -4 53 15 28 25
35 72 47 90 26 219 -34 294 -135 25 -33 46 -62 48 -63 7 -8 115 29 115 39 0 6
-17 76 -37 155 l-37 144 -46 0 c-40 0 -48 -4 -58 -25 l-11 -24 -58 26 c-79 37
-201 42 -290 13z"/>
<path d="M3860 1034 c-87 -23 -154 -61 -212 -118 -173 -173 -181 -475 -17
-650 100 -107 209 -150 374 -148 150 2 249 37 337 120 96 89 138 196 138 348
0 189 -87 337 -247 418 -87 44 -266 59 -373 30z m245 -157 c52 -29 100 -102
116 -175 17 -81 7 -235 -18 -292 -43 -96 -115 -150 -203 -150 -86 0 -157 49
-199 137 -42 87 -43 265 -3 356 21 48 74 112 106 129 61 33 136 31 201 -5z"/>
<path d="M2420 975 l0 -65 39 0 c72 0 71 5 71 -329 0 -218 -3 -300 -12 -309
-7 -7 -31 -12 -55 -12 l-43 0 0 -65 0 -65 220 0 220 0 0 65 0 65 -45 0 c-40 0
-47 3 -55 26 -6 14 -10 75 -10 135 l0 109 165 0 165 0 0 -123 c0 -82 -4 -127
-12 -135 -7 -7 -31 -12 -55 -12 l-43 0 0 -65 0 -65 225 0 225 0 0 65 0 65 -43
0 c-24 0 -48 5 -55 12 -17 17 -17 609 0 626 7 7 31 12 55 12 l43 0 0 65 0 65
-225 0 -225 0 0 -65 0 -65 43 0 c24 0 48 -5 55 -12 8 -8 12 -49 12 -120 l0
-108 -162 2 -163 3 -3 90 c-3 116 8 139 66 143 l42 3 0 65 0 64 -220 0 -220 0
0 -65z"/>
<path d="M4587 1033 c-4 -3 -7 -33 -7 -65 l0 -58 44 0 c25 0 48 -6 55 -14 8
-9 11 -103 9 -322 l-3 -309 -50 -5 -50 -5 -3 -63 -3 -62 226 0 225 0 0 65 0
65 -43 0 c-24 0 -48 5 -55 12 -8 8 -12 48 -12 114 l0 102 133 4 c144 4 191 18
266 77 78 62 109 183 72 281 -38 102 -124 165 -249 181 -79 10 -546 12 -555 2z
m495 -153 c20 -6 49 -25 63 -42 24 -28 27 -39 23 -85 -8 -90 -58 -123 -185
-123 l-63 0 0 130 0 130 63 0 c34 0 79 -5 99 -10z"/>
<path d="M1080 460 l0 -80 175 0 175 0 0 80 0 80 -175 0 -175 0 0 -80z"/>
</g>
</svg>
